<svg width="47" height="46" viewBox="0 0 47 46" fill="none" xmlns="http://www.w3.org/2000/svg">
	<path d="M19.7309 13.8163L26.6024 19.6334C27.4386 20.3875 27.5476 21.6802 26.7841 22.5061L18.7129 31.7704C18.3585 32.1905 17.8659 32.4228 17.3529 32.4675C17.2724 32.4813 17.1803 32.4886 17.0769 32.4886L10.9326 32.4167C10.1691 32.4167 9.40561 31.7704 9.29654 31.0163L8.35718 25.2779C8.2554 24.6218 8.27093 23.8653 8.75119 23.2961L16.8224 14.0318C17.5495 13.17 18.8584 13.0982 19.7309 13.8163Z" fill="#1AA0E8"/>
	<path d="M26.7479 31.6267L19.9128 25.8096C19.0402 25.0914 18.9312 23.7988 19.6946 22.937L27.7658 13.6727C28.2359 13.1156 28.8584 12.9676 29.6303 12.9917L35.5826 13.0263C36.346 13.0263 37.1095 13.6727 37.2186 14.4267L38.2002 20.4234C38.2135 20.5148 38.2197 20.5982 38.2195 20.6735C38.2513 21.189 38.0873 21.7207 37.7276 22.147L29.6564 31.4113C28.9293 32.2731 27.6204 32.3449 26.7479 31.6267Z" fill="#0B63CE"/>
	<path d="M24.2833 17.6699L26.6024 19.6333C27.4387 20.3873 27.5477 21.68 26.7842 22.5059L22.2059 27.761L19.9128 25.8095C19.0402 25.0913 18.9312 23.7986 19.6947 22.9368L24.2833 17.6699Z" fill="#134194"/>
</svg>
